simulation
nRows=68
nColumns=15
endheader
time  TH_x TH_y TH_z SC_y  SC_z  SC_x  AC_y  AC_z  AC_x  GH_y  GH_z  GH_yy  EL_x  PS_y
0.750117  0.000000  0.000000  0.000000  -23.984727  3.295332  5.000000  44.381165  7.214301  -3.127104  28.666324  10.427384  -11.606851  9.574657  121.194219
0.750351  0.000000  0.000000  0.000000  -23.984727  3.295332  7.500000  44.579330  5.462498  -4.921737  28.666324  10.427384  -11.606851  9.574657  121.194219
0.750585  0.000000  0.000000  0.000000  -23.984727  3.295332  10.000000  44.721946  3.705393  -6.705895  28.666324  10.427384  -11.606851  9.574657  121.194219
0.750819  0.000000  0.000000  0.000000  -23.984727  3.295332  12.500000  44.809554  1.944738  -8.482969  28.666324  10.427384  -11.606851  9.574657  121.194219
0.751053  0.000000  0.000000  0.000000  -23.984727  3.295332  15.000000  44.842470  0.182199  -10.256330  28.666324  10.427384  -11.606851  9.574657  121.194219
0.751287  0.000000  0.000000  0.000000  -23.984727  3.295332  17.500000  44.820831  -1.580502  -12.029337  28.666324  10.427384  -11.606851  9.574657  121.194219
0.751521  0.000000  0.000000  0.000000  -23.984727  3.295332  20.000000  44.744551  -3.341693  -13.805364  28.666324  10.427384  -11.606851  9.574657  121.194219
0.751755  0.000000  0.000000  0.000000  -23.984727  3.295332  22.500000  44.613342  -5.099668  -15.587772  28.666324  10.427384  -11.606851  9.574657  121.194219
0.751989  0.000000  0.000000  0.000000  -23.984727  3.295332  25.000000  44.426709  -6.852707  -17.379956  28.666324  10.427384  -11.606851  9.574657  121.194219
0.752223  0.000000  0.000000  0.000000  -23.984727  3.295332  27.500000  44.183960  -8.599059  -19.185347  28.666324  10.427384  -11.606851  9.574657  121.194219
0.752457  0.000000  0.000000  0.000000  -23.984727  3.295332  30.000000  43.884181  -10.336921  -21.007415  28.666324  10.427384  -11.606851  9.574657  121.194219
0.752691  0.000000  0.000000  0.000000  -23.984727  3.295332  32.500000  43.526254  -12.064441  -22.849701  28.666324  10.427384  -11.606851  9.574657  121.194219
0.752925  0.000000  0.000000  0.000000  -23.984727  3.295332  35.000000  43.108858  -13.779707  -24.715806  28.666324  10.427384  -11.606851  9.574657  121.194219
0.753159  0.000000  0.000000  0.000000  -23.984727  3.295332  37.500000  42.630483  -15.480696  -26.609398  28.666324  10.427384  -11.606851  9.574657  121.194219
0.753393  0.000000  0.000000  0.000000  -23.984727  3.295332  40.000000  42.089394  -17.165331  -28.534237  28.666324  10.427384  -11.606851  9.574657  121.194219
0.753627  0.000000  0.000000  0.000000  -23.984727  3.295332  42.500000  41.483677  -18.831392  -30.494177  28.666324  10.427384  -11.606851  9.574657  121.194219
0.753861  0.000000  0.000000  0.000000  -23.984727  3.295332  45.000000  40.811226  -20.476568  -32.493121  28.666324  10.427384  -11.606851  9.574657  121.194219
0.754095  0.000000  0.000000  0.000000  -23.984727  3.295332  47.500000  40.069744  -22.098385  -34.535104  28.666324  10.427384  -11.606851  9.574657  121.194219
0.754328  0.000000  0.000000  0.000000  -23.984727  3.295332  50.000000  39.256800  -23.694260  -36.624185  28.666324  10.427384  -11.606851  9.574657  121.194219
0.754562  0.000000  0.000000  0.000000  -20.301570  17.002749  -10.000000  33.311298  27.259877  22.380845  32.667368  9.247914  -30.085399  19.579628  126.591208
0.754796  0.000000  0.000000  0.000000  -20.301570  17.002749  -7.500000  34.349781  25.867820  20.059050  32.667368  9.247914  -30.085399  19.579628  126.591208
0.755030  0.000000  0.000000  0.000000  -20.301570  17.002749  -5.000000  35.313552  24.439689  17.792018  32.667368  9.247914  -30.085399  19.579628  126.591208
0.755264  0.000000  0.000000  0.000000  -20.301570  17.002749  -2.500000  36.204642  22.978556  15.576334  32.667368  9.247914  -30.085399  19.579628  126.591208
0.755498  0.000000  0.000000  0.000000  -20.301570  17.002749  0.000000  37.025027  21.487283  13.408548  32.667368  9.247914  -30.085399  19.579628  126.591208
0.755732  0.000000  0.000000  0.000000  -20.301570  17.002749  2.500000  37.776711  19.968629  11.285133  32.667368  9.247914  -30.085399  19.579628  126.591208
0.755966  0.000000  0.000000  0.000000  -20.301570  17.002749  5.000000  38.461625  18.425201  9.202556  32.667368  9.247914  -30.085399  19.579628  126.591208
0.756200  0.000000  0.000000  0.000000  -20.301570  17.002749  7.500000  39.081610  16.859482  7.157291  32.667368  9.247914  -30.085399  19.579628  126.591208
0.756434  0.000000  0.000000  0.000000  -20.301570  17.002749  10.000000  39.638396  15.273837  5.145837  32.667368  9.247914  -30.085399  19.579628  126.591208
0.756668  0.000000  0.000000  0.000000  -20.301570  17.002749  12.500000  40.133588  13.670517  3.164726  32.667368  9.247914  -30.085399  19.579628  126.591208
0.756902  0.000000  0.000000  0.000000  -20.301570  17.002749  15.000000  40.568652  12.051682  1.210533  32.667368  9.247914  -30.085399  19.579628  126.591208
0.757136  0.000000  0.000000  0.000000  -20.301570  17.002749  17.500000  40.944902  10.419401  -0.720127  32.667368  9.247914  -30.085399  19.579628  126.591208
0.757370  0.000000  0.000000  0.000000  -20.301570  17.002749  20.000000  41.263485  8.775683  -2.630603  32.667368  9.247914  -30.085399  19.579628  126.591208
0.757604  0.000000  0.000000  0.000000  -20.301570  17.002749  22.500000  41.525405  7.122420  -4.524162  32.667368  9.247914  -30.085399  19.579628  126.591208
0.757838  0.000000  0.000000  0.000000  -20.301570  17.002749  25.000000  41.731474  5.461530  -6.404094  32.667368  9.247914  -30.085399  19.579628  126.591208
0.758072  0.000000  0.000000  0.000000  -20.301570  17.002749  27.500000  41.882362  3.794818  -8.273613  32.667368  9.247914  -30.085399  19.579628  126.591208
0.758306  0.000000  0.000000  0.000000  -20.301570  17.002749  30.000000  41.978526  2.124106  -10.135923  32.667368  9.247914  -30.085399  19.579628  126.591208
0.758540  0.000000  0.000000  0.000000  -20.301570  17.002749  32.500000  42.020289  0.451152  -11.994204  32.667368  9.247914  -30.085399  19.579628  126.591208
0.758774  0.000000  0.000000  0.000000  -20.301570  17.002749  35.000000  42.007789  -1.222276  -13.851633  32.667368  9.247914  -30.085399  19.579628  126.591208
0.759008  0.000000  0.000000  0.000000  -20.301570  17.002749  37.500000  41.940978  -2.894421  -15.711378  32.667368  9.247914  -30.085399  19.579628  126.591208
0.759242  0.000000  0.000000  0.000000  -20.301570  17.002749  40.000000  41.819647  -4.563508  -17.576613  32.667368  9.247914  -30.085399  19.579628  126.591208
0.759476  0.000000  0.000000  0.000000  -20.301570  17.002749  42.500000  41.643404  -6.227760  -19.450531  32.667368  9.247914  -30.085399  19.579628  126.591208
0.759710  0.000000  0.000000  0.000000  -20.301570  17.002749  45.000000  41.411690  -7.885361  -21.336342  32.667368  9.247914  -30.085399  19.579628  126.591208
0.759944  0.000000  0.000000  0.000000  -20.301570  17.002749  47.500000  41.123772  -9.534459  -23.237287  32.667368  9.247914  -30.085399  19.579628  126.591208
0.760178  0.000000  0.000000  0.000000  -20.301570  17.002749  50.000000  40.778751  -11.173150  -25.156641  32.667368  9.247914  -30.085399  19.579628  126.591208
0.760412  0.000000  0.000000  0.000000  -18.415144  18.973385  -10.000000  34.984577  19.546771  20.880545  1.278501  0.009634  5.946515  11.122251  112.725835
0.760646  0.000000  0.000000  0.000000  -18.415144  18.973385  -7.500000  35.679949  18.100800  18.725811  1.278501  0.009634  5.946515  11.122251  112.725835
0.760880  0.000000  0.000000  0.000000  -18.415144  18.973385  -5.000000  36.312579  16.631297  16.606621  1.278501  0.009634  5.946515  11.122251  112.725835
0.761114  0.000000  0.000000  0.000000  -18.415144  18.973385  -2.500000  36.883888  15.140621  14.519883  1.278501  0.009634  5.946515  11.122251  112.725835
0.761348  0.000000  0.000000  0.000000  -18.415144  18.973385  0.000000  37.395141  13.631059  12.462505  1.278501  0.009634  5.946515  11.122251  112.725835
0.761582  0.000000  0.000000  0.000000  -18.415144  18.973385  2.500000  37.847562  12.104795  10.431402  1.278501  0.009634  5.946515  11.122251  112.725835
0.761816  0.000000  0.000000  0.000000  -18.415144  18.973385  5.000000  38.242264  10.563937  8.423468  1.278501  0.009634  5.946515  11.122251  112.725835
0.762050  0.000000  0.000000  0.000000  -18.415144  18.973385  7.500000  38.580233  9.010525  6.435665  1.278501  0.009634  5.946515  11.122251  112.725835
0.762284  0.000000  0.000000  0.000000  -18.415144  18.973385  10.000000  38.862341  7.446537  4.464941  1.278501  0.009634  5.946515  11.122251  112.725835
0.762518  0.000000  0.000000  0.000000  -18.415144  18.973385  12.500000  39.089326  5.873900  2.508271  1.278501  0.009634  5.946515  11.122251  112.725835
0.762752  0.000000  0.000000  0.000000  -18.415144  18.973385  15.000000  39.261776  4.294503  0.562639  1.278501  0.009634  5.946515  11.122251  112.725835
0.762985  0.000000  0.000000  0.000000  -18.415144  18.973385  17.500000  39.380164  2.710192  -1.374939  1.278501  0.009634  5.946515  11.122251  112.725835
0.763219  0.000000  0.000000  0.000000  -18.415144  18.973385  20.000000  39.444805  1.122794  -3.307447  1.278501  0.009634  5.946515  11.122251  112.725835
0.763453  0.000000  0.000000  0.000000  -18.415144  18.973385  22.500000  39.455872  -0.465877  -5.237857  1.278501  0.009634  5.946515  11.122251  112.725835
0.763687  0.000000  0.000000  0.000000  -18.415144  18.973385  25.000000  39.413398  -2.054020  -7.169138  1.278501  0.009634  5.946515  11.122251  112.725835
0.763921  0.000000  0.000000  0.000000  -18.415144  18.973385  27.500000  39.317267  -3.639830  -9.104256  1.278501  0.009634  5.946515  11.122251  112.725835
0.764155  0.000000  0.000000  0.000000  -18.415144  18.973385  30.000000  39.167216  -5.221480  -11.046197  1.278501  0.009634  5.946515  11.122251  112.725835
0.764389  0.000000  0.000000  0.000000  -18.415144  18.973385  32.500000  38.962853  -6.797143  -12.997936  1.278501  0.009634  5.946515  11.122251  112.725835
0.764623  0.000000  0.000000  0.000000  -18.415144  18.973385  35.000000  38.703625  -8.364937  -14.962484  1.278501  0.009634  5.946515  11.122251  112.725835
0.764857  0.000000  0.000000  0.000000  -18.415144  18.973385  37.500000  38.388857  -9.922956  -16.942852  1.278501  0.009634  5.946515  11.122251  112.725835
0.765091  0.000000  0.000000  0.000000  -18.415144  18.973385  40.000000  38.017732  -11.469247  -18.942085  1.278501  0.009634  5.946515  11.122251  112.725835
0.765325  0.000000  0.000000  0.000000  -18.415144  18.973385  42.500000  37.589293  -13.001800  -20.963251  1.278501  0.009634  5.946515  11.122251  112.725835
0.765559  0.000000  0.000000  0.000000  -18.415144  18.973385  45.000000  37.102520  -14.518544  -23.009394  1.278501  0.009634  5.946515  11.122251  112.725835
0.765793  0.000000  0.000000  0.000000  -18.415144  18.973385  47.500000  36.556204  -16.017287  -25.083603  1.278501  0.009634  5.946515  11.122251  112.725835
